HIERARCHY
ROOT joint_Root
{
	OFFSET 0.0 0.0 0.0
	CHANNELS 6 Xposition Yposition Zposition Zrotation Xrotation Yrotation 
	JOINT Hips
	{
		OFFSET 4.5925 91.4895 -427.239
		CHANNELS 6 Xposition Yposition Zposition Zrotation Xrotation Yrotation 
		JOINT Spine
		{
			OFFSET 15.7357 0.0 0.0
			CHANNELS 6 Xposition Yposition Zposition Zrotation Xrotation Yrotation 
			JOINT Chest
			{
				OFFSET 8.98455 -0.406207 0.0
				CHANNELS 6 Xposition Yposition Zposition Zrotation Xrotation Yrotation 
				JOINT Neck
				{
					OFFSET 16.3773 0.0 0.0
					CHANNELS 6 Xposition Yposition Zposition Zrotation Xrotation Yrotation 
					JOINT Head
					{
						OFFSET 6.45672 0.0 0.0
						CHANNELS 6 Xposition Yposition Zposition Zrotation Xrotation Yrotation 
						End Site
						{
							OFFSET 0.0 0.0 0.0
						}
					}
				}
				JOINT Shoulder_L
				{
					OFFSET 12.9942 -0.242716 4.98039
					CHANNELS 6 Xposition Yposition Zposition Zrotation Xrotation Yrotation 
					JOINT UpperArm_L
					{
						OFFSET 5.34809 0.0 0.0
						CHANNELS 6 Xposition Yposition Zposition Zrotation Xrotation Yrotation 
						JOINT LowerArm_L
						{
							OFFSET 24.3286 1.87007e-05 0.0
							CHANNELS 6 Xposition Yposition Zposition Zrotation Xrotation Yrotation 
							JOINT Hand_L
							{
								OFFSET 22.2916 0.0 0.0
								CHANNELS 6 Xposition Yposition Zposition Zrotation Xrotation Yrotation 
								End Site
								{
									OFFSET 0.0 0.0 0.0
								}
							}
						}
					}
				}
				JOINT Shoulder_R
				{
					OFFSET 12.9945 -0.242716 -4.98039
					CHANNELS 6 Xposition Yposition Zposition Zrotation Xrotation Yrotation 
					JOINT UpperArm_R
					{
						OFFSET -5.34813 0.0 0.0
						CHANNELS 6 Xposition Yposition Zposition Zrotation Xrotation Yrotation 
						JOINT LowerArm_R
						{
							OFFSET -24.3289 0.000322201 0.0
							CHANNELS 6 Xposition Yposition Zposition Zrotation Xrotation Yrotation 
							JOINT Hand_R
							{
								OFFSET -22.2915 -0.000108084 0.0
								CHANNELS 6 Xposition Yposition Zposition Zrotation Xrotation Yrotation 
								End Site
								{
									OFFSET 0.0 0.0 0.0
								}
							}
						}
					}
				}
			}
		}
		JOINT UpperLeg_L
		{
			OFFSET -2.19248 -6.46944 0.0
			CHANNELS 6 Xposition Yposition Zposition Zrotation Xrotation Yrotation 
			JOINT LowerLeg_L
			{
				OFFSET 39.0811 0.0 -1.23785e-05
				CHANNELS 6 Xposition Yposition Zposition Zrotation Xrotation Yrotation 
				JOINT Foot_L
				{
					OFFSET 40.9854 0.0 -1.26872e-05
					CHANNELS 6 Xposition Yposition Zposition Zrotation Xrotation Yrotation 
					JOINT Toes_L
					{
						OFFSET 11.7543 0.0 0.0
						CHANNELS 6 Xposition Yposition Zposition Zrotation Xrotation Yrotation 
						End Site
						{
							OFFSET 0.0 0.0 0.0
						}
					}
				}
			}
		}
		JOINT UpperLeg_R
		{
			OFFSET -2.19251 6.46944 0.0
			CHANNELS 6 Xposition Yposition Zposition Zrotation Xrotation Yrotation 
			JOINT LowerLeg_R
			{
				OFFSET -39.0811 -0.00228153 -0.0401928
				CHANNELS 6 Xposition Yposition Zposition Zrotation Xrotation Yrotation 
				JOINT Foot_R
				{
					OFFSET -40.9854 0.0 0.0
					CHANNELS 6 Xposition Yposition Zposition Zrotation Xrotation Yrotation 
					JOINT Toes_R
					{
						OFFSET -11.7543 0.0 0.0
						CHANNELS 6 Xposition Yposition Zposition Zrotation Xrotation Yrotation 
						End Site
						{
							OFFSET 0.0 0.0 0.0
						}
					}
				}
			}
		}
	}
}
MOTION
Frames:	6
Frame Time:	0.0333333
0.000000 0.000000 0.000000 0.000000 0.000000 -0.000000 -1.636990 91.902500 1.800340 89.673400 -9.119640 3.666030 15.735700 0.000005 -0.000001 62.181500 85.767500 -57.722700 8.984550 -0.406207 -0.000000 -0.096540 -4.254890 8.912170 16.377300 -0.000001 -0.000001 5.173830 1.363600 -2.381920 6.456720 -0.000001 -0.000000 -1.526580 2.260520 0.455033 12.994200 -0.242716 4.980390 -84.085800 -13.037300 -65.335000 5.348090 -0.000007 -0.000001 -33.682300 -64.191000 -67.550800 24.328600 0.000019 0.000005 6.068000 3.854390 -57.698500 22.291600 -0.000001 0.000005 17.226600 5.476060 -5.599970 12.994500 -0.242716 -4.980390 87.067900 9.789840 -73.236200 -5.348130 -0.000001 -0.000004 -54.566400 22.391800 0.397401 -24.328900 0.000322 -0.000009 1.764590 4.290250 -22.394200 -22.291500 -0.000108 -0.000004 15.515100 5.433740 -4.068450 -2.192480 -6.469440 -0.000000 -174.171000 -19.232700 1.041720 39.081100 -0.000007 -0.000012 -0.120357 0.305753 21.486800 40.985400 -0.000006 -0.000013 -0.906561 7.254200 -67.835300 11.754300 -0.000000 0.000003 -0.000112 -0.001134 -16.620900 -2.192510 6.469440 -0.000001 175.104000 21.238600 179.595000 -39.081100 -0.002282 -0.040193 -0.103975 0.259531 22.460600 -40.985400 0.000008 0.000006 4.551330 20.865800 -68.865900 -11.754300 -0.000006 -0.000006 -0.215602 -0.260152 -16.407800
0.000000 0.000000 0.000000 0.000000 0.000000 -0.000000 -1.864400 91.953800 1.622500 89.583800 -8.579790 3.668160 15.735700 0.000005 -0.000001 63.603400 85.708300 -59.388900 8.984550 -0.406207 -0.000000 0.088787 -4.096950 8.429710 16.377300 -0.000001 -0.000001 4.524550 1.105300 -2.041990 6.456720 -0.000001 -0.000000 -1.485680 2.443290 0.073088 12.994200 -0.242716 4.980390 -84.895800 -11.432800 -65.742800 5.348090 -0.000007 -0.000001 -29.859200 -61.184100 -58.121100 24.328600 0.000019 0.000005 6.310880 2.446220 -68.893100 22.291600 -0.000001 0.000005 17.922700 5.466560 -5.243880 12.994500 -0.242716 -4.980390 87.103400 9.553640 -73.045500 -5.348130 -0.000001 -0.000004 -56.054800 22.666700 -0.216526 -24.328900 0.000322 -0.000009 1.327930 3.316780 -21.849500 -22.291500 -0.000108 -0.000004 16.085200 5.431750 -3.999200 -2.192480 -6.469440 -0.000000 -173.988000 -18.797100 0.907061 39.081100 -0.000007 -0.000012 -0.121381 0.310639 21.343000 40.985400 -0.000006 -0.000013 -1.035130 7.372440 -67.547600 11.754300 -0.000000 0.000003 -0.000123 -0.001231 -16.624600 -2.192510 6.469440 -0.000001 175.237000 22.048100 179.845000 -39.081100 -0.002282 -0.040193 -0.111127 0.283121 22.009800 -40.985400 0.000008 0.000006 4.314100 21.192000 -68.506700 -11.754300 -0.000006 -0.000006 -0.138899 -0.166971 -16.466900
0.000000 0.000000 0.000000 0.000000 0.000000 -0.000000 -2.051660 92.002200 1.432180 89.580600 -7.940700 3.523740 15.735700 0.000005 -0.000001 64.714900 85.683600 -60.782700 8.984550 -0.406207 -0.000000 0.189077 -3.945950 7.868340 16.377300 -0.000001 -0.000001 3.692980 0.910492 -1.627270 6.456720 -0.000001 -0.000000 -1.345940 2.611000 -0.323635 12.994200 -0.242716 4.980390 -85.798300 -9.624670 -66.279600 5.348090 -0.000007 -0.000001 -26.930800 -56.739700 -48.659600 24.328600 0.000019 0.000005 6.720720 1.158290 -80.266500 22.291600 -0.000001 0.000005 18.502800 5.454560 -4.803920 12.994500 -0.242716 -4.980390 87.205000 9.170220 -72.968200 -5.348130 -0.000001 -0.000004 -57.813400 23.006400 -0.791446 -24.328900 0.000322 -0.000009 1.131860 2.915760 -21.244200 -22.291500 -0.000108 -0.000004 16.523200 5.431810 -4.001230 -2.192480 -6.469440 -0.000000 -173.949000 -18.398500 0.601380 39.081100 -0.000007 -0.000012 -0.120274 0.310665 21.164000 40.985400 -0.000006 -0.000013 -1.119510 7.640200 -67.231600 11.754300 -0.000000 0.000003 -0.000135 -0.001326 -16.628100 -2.192510 6.469440 -0.000001 175.424000 22.547900 179.820000 -39.081100 -0.002282 -0.040193 -0.114959 0.297418 21.686900 -40.985400 0.000008 0.000006 4.128710 21.081900 -68.217600 -11.754300 -0.000006 -0.000006 -0.000000 -0.000006 -16.574100
0.000000 0.000000 0.000000 0.000000 0.000000 -0.000000 -2.218740 92.053700 1.226280 89.603500 -7.228390 3.367730 15.735700 0.000005 -0.000001 66.685200 85.696500 -63.098600 8.984550 -0.406207 -0.000000 0.263855 -3.640120 7.178760 16.377300 -0.000001 -0.000001 3.046690 0.615807 -1.038790 6.456720 -0.000001 -0.000000 -1.479890 2.591120 -0.564428 12.994200 -0.242716 4.980390 -86.736900 -7.875820 -67.410200 5.348090 -0.000007 -0.000001 -24.844500 -50.636700 -38.971200 24.328600 0.000019 0.000005 6.760830 -0.110226 -90.926900 22.291600 -0.000001 0.000005 18.631900 5.449960 -4.638290 12.994500 -0.242716 -4.980390 87.276200 8.871770 -72.855800 -5.348130 -0.000001 -0.000004 -59.667400 23.574700 -1.010230 -24.328900 0.000322 -0.000009 1.056530 2.737240 -21.134600 -22.291500 -0.000108 -0.000004 16.826700 5.429880 -3.934810 -2.192480 -6.469440 -0.000000 -173.909000 -18.286100 0.280821 39.081100 -0.000007 -0.000012 -0.116816 0.304888 20.964200 40.985400 -0.000006 -0.000013 -1.118220 8.244720 -66.884300 11.754300 -0.000000 0.000003 -0.000146 -0.001424 -16.631700 -2.192510 6.469440 -0.000001 175.597000 23.101400 179.750000 -39.081100 -0.002282 -0.040193 -0.114452 0.300228 21.418700 -40.985400 0.000008 0.000006 4.190960 20.931100 -68.046400 -11.754300 -0.000006 -0.000006 -0.000001 -0.000009 -16.574200
0.000000 0.000000 0.000000 0.000000 0.000000 -0.000000 -2.362030 92.112200 1.041280 89.661200 -6.296570 3.291980 15.735700 0.000005 -0.000001 68.300800 85.643900 -65.107300 8.984550 -0.406207 -0.000000 0.433780 -3.424330 6.397070 16.377300 -0.000001 -0.000001 2.341580 0.270209 -0.427685 6.456720 -0.000001 -0.000000 -1.691350 2.412690 -0.528665 12.994200 -0.242716 4.980390 -87.698300 -5.891660 -68.617800 5.348090 -0.000007 -0.000001 -24.159000 -42.423700 -30.409200 24.328600 0.000019 0.000005 6.438230 -1.028420 -99.042000 22.291600 -0.000001 0.000005 18.290300 5.456610 -4.882690 12.994500 -0.242716 -4.980390 87.302900 8.758890 -72.810300 -5.348130 -0.000001 -0.000004 -61.271800 24.558700 -1.062420 -24.328900 0.000322 -0.000009 0.897372 2.281530 -21.501700 -22.291500 -0.000108 -0.000004 16.681400 5.430830 -3.967750 -2.192480 -6.469440 -0.000000 -173.923000 -17.907400 0.049696 39.081100 -0.000007 -0.000012 -0.115181 0.305231 20.674400 40.985400 -0.000006 -0.000013 -1.128370 8.782460 -66.488600 11.754300 -0.000000 0.000003 -0.000158 -0.001516 -16.635100 -2.192510 6.469440 -0.000001 175.632000 24.076100 179.848000 -39.081100 -0.002282 -0.040193 -0.109742 0.293143 21.091000 -40.985400 0.000008 0.000006 4.255310 20.916700 -67.870100 -11.754300 -0.000006 -0.000006 -0.000001 -0.000012 -16.574300
0.000000 0.000000 0.000000 0.000000 0.000000 -0.000000 -2.462530 92.157600 0.818420 89.643200 -5.456900 3.166950 15.735700 0.000005 -0.000001 69.312300 85.553900 -66.465200 8.984550 -0.406207 -0.000000 0.643359 -3.317160 5.709860 16.377300 -0.000001 -0.000001 1.525260 -0.066390 0.066147 6.456720 -0.000001 -0.000000 -1.856230 2.291460 -0.543160 12.994200 -0.242716 4.980390 -88.748400 -3.298130 -69.205100 5.348090 -0.000007 -0.000001 -24.669900 -32.223600 -23.834200 24.328600 0.000019 0.000005 6.414750 -1.466240 -102.821000 22.291600 -0.000001 0.000005 17.217700 5.472110 -5.449360 12.994500 -0.242716 -4.980390 87.342700 8.749110 -73.031500 -5.348130 -0.000001 -0.000004 -62.455200 25.958500 -1.171240 -24.328900 0.000322 -0.000009 0.655880 1.614070 -22.151700 -22.291500 -0.000108 -0.000004 16.447600 5.434800 -4.105340 -2.192480 -6.469440 -0.000000 -173.922000 -17.574300 -0.336039 39.081100 -0.000007 -0.000012 -0.113107 0.301211 20.581600 40.985400 -0.000006 -0.000013 -1.090770 9.282410 -66.189100 11.754300 -0.000000 0.000003 -0.000154 -0.001488 -16.634100 -2.192510 6.469440 -0.000001 175.781000 24.786800 179.804000 -39.081100 -0.002282 -0.040193 -0.109950 0.297712 20.830300 -40.985400 0.000008 0.000006 4.270270 20.770900 -67.670100 -11.754300 -0.000006 -0.000006 -0.000001 -0.000008 -16.574100
